<svg aria-hidden="true" style="position:absolute;width:0;height:0;overflow:hidden" xmlns="http://www.w3.org/2000/svg">
  <defs>
    <symbol id="icon-angular" viewBox="0 0 32 32">
      <path  d="m16 2.667 12.4 4.427-1.891 16.413L16 29.334 5.491 23.507 3.6 7.094 16 2.667zm0 2.946-7.752 17.4h2.891l1.559-3.893h6.579l1.56 3.893h2.889l-7.725-17.4zm2.264 11.107h-4.528L16 11.267l2.264 5.453z"/>
    </symbol>
    <symbol id="icon-arrow" viewBox="0 0 32 32">
      <path  d="m16 21.333-8-8h16l-8 8z"/>
    </symbol>
    <symbol id="icon-checkbox" viewBox="0 0 32 32">
      <path  d="M13.333 20.229 25.589 7.972l1.887 1.885L13.333 24l-8.485-8.485 1.885-1.885 6.6 6.6z"/>
    </symbol>
    <symbol id="icon-close" viewBox="0 0 32 32">
      <path  d="m16 14.115 6.6-6.6L24.485 9.4l-6.6 6.6 6.6 6.6-1.885 1.885-6.6-6.6-6.6 6.6L7.515 22.6l6.6-6.6-6.6-6.6L9.4 7.515l6.6 6.6z"/>
    </symbol>
    <symbol id="icon-code" viewBox="0 0 32 32">
      <path  d="M4 4h24a1.331 1.331 0 0 1 1.334 1.334v21.333A1.334 1.334 0 0 1 28 28.001H4a1.334 1.334 0 0 1-1.334-1.334V5.334A1.334 1.334 0 0 1 4 4zm12 16v2.667h8V20h-8zm-4.781-4-3.771 3.771 1.885 1.887 5.657-5.657-5.657-5.657-1.885 1.887 3.771 3.771z"/>
    </symbol>
    <symbol id="icon-css" viewBox="0 0 32 32">
      <path  d="M6.667 4 5.8 8.453h18.12l-.587 2.88H5.227l-.88 4.44h18.12l-1.013 5.08-7.307 2.413-6.333-2.413.44-2.187H3.801l-1.053 5.333 10.467 4 12.066-4 1.6-8.04.32-1.613 2.053-10.347H6.667z"/>
    </symbol>
    <symbol id="icon-details" viewBox="0 0 32 32">
      <path  d="M6.572 25.428A13.28 13.28 0 0 1 2.666 16c0-7.364 5.969-13.333 13.333-13.333S29.332 8.636 29.332 16s-5.969 13.333-13.333 13.333H2.666l3.905-3.905zm4.095-8.095a5.332 5.332 0 1 0 10.666 0H10.666z"/>
    </symbol>
    <symbol id="icon-facebook" viewBox="0 0 32 32">
      <path  d="M18.667 18H22l1.333-5.333h-4.667V10c0-1.373 0-2.667 2.667-2.667h2v-4.48c-.435-.057-2.076-.187-3.809-.187-3.62 0-6.191 2.209-6.191 6.267v3.733h-4v5.333h4v11.333h5.333V17.999z"/>
    </symbol>
    <symbol id="icon-flutter" viewBox="0 0 32 32">
      <path  d="M18.004 2.668 4.671 16.001l4.111 4.111 17.44-17.444h-8.217zm-.008 12.264-7.167 7.228 7.163 7.173h8.252l-7.183-7.2 7.185-7.2-8.251-.001z"/>
    </symbol>
    <symbol id="icon-game" viewBox="0 0 32 32">
      <path  d="M22.667 5.333a8 8 0 0 1 8 8v5.333a8 8 0 0 1-8 8H9.334a8 8 0 0 1-8-8v-5.333a8 8 0 0 1 8-8h13.333zM13.333 12h-2.667v2.667H7.999v2.667h2.665l.001 2.667h2.667l-.001-2.667h2.668v-2.667h-2.667V12zM24 17.333h-2.667V20H24v-2.667zM21.333 12h-2.667v2.667h2.667V12z"/>
    </symbol>
    <symbol id="icon-gatsby" viewBox="0 0 32 32">
      <path  d="M16 2.667c-7.333 0-13.333 6-13.333 13.333s6 13.333 13.333 13.333 13.333-6 13.333-13.333S23.333 2.667 16 2.667zM8.572 23.428c-2-2-3.048-4.667-3.048-7.237l10.381 10.285c-2.667-.095-5.333-1.048-7.333-3.048zm9.713 2.763L5.809 13.715C6.857 9.048 11.048 5.524 16 5.524c3.524 0 6.572 1.715 8.476 4.285l-1.428 1.239C21.427 8.857 18.858 7.427 16 7.427c-3.715 0-6.857 2.381-8.095 5.715l10.952 10.952c2.761-.952 4.857-3.333 5.524-6.189h-4.572v-1.904h6.667c0 4.952-3.524 9.143-8.19 10.191z"/>
    </symbol>
    <symbol id="icon-html" viewBox="0 0 32 32">
      <path d="m16 24.237 6.16-1.675.83-9.037H12.034l-.272-3.005h11.501l.303-2.948H8.433l.848 8.904h10.427l-.348 3.821-3.36.889-3.36-.889-.211-2.459H9.402l.439 4.725L16 24.236zM4 2.667h24l-2.164 24L16 29.334l-9.836-2.667L4 2.667z"/>
    </symbol>
    <symbol id="icon-info" viewBox="0 0 32 32">
      <path  d="M6.667 26.667h18.667v2.667H6.667v-2.667zM16 24a10.666 10.666 0 1 1 0-21.333A10.666 10.666 0 0 1 16 24z"/>
    </symbol>
    <symbol id="icon-message" viewBox="0 0 32 32">
      <path  d="M4 4h24a1.331 1.331 0 0 1 1.334 1.334v21.333A1.334 1.334 0 0 1 28 28.001H4a1.334 1.334 0 0 1-1.334-1.334V5.334A1.334 1.334 0 0 1 4 4zm12.08 11.577-8.55-7.26-1.727 2.032 10.293 8.74 10.108-8.747-1.744-2.017-8.381 7.252z"/>
    </symbol>
    <symbol id="icon-phone" viewBox="0 0 32 32">
      <path  d="M28 21.893v4.715a1.335 1.335 0 0 1-1.24 1.331c-.583.04-1.059.061-1.427.061C13.55 28 4 18.449 4 6.667c0-.368.02-.844.061-1.427A1.334 1.334 0 0 1 5.391 4h4.715a.67.67 0 0 1 .664.6c.031.307.059.551.086.736a18.53 18.53 0 0 0 1.611 5.335.607.607 0 0 1-.196.756l-2.877 2.056a17.395 17.395 0 0 0 9.125 9.125l2.053-2.872a.62.62 0 0 1 .764-.199 18.551 18.551 0 0 0 5.333 1.607c.185.027.429.056.733.085a.668.668 0 0 1 .599.664H28z"/>
    </symbol>
    <symbol id="icon-react" viewBox="0 0 32 32">
      <path  d="M16 18a2 2 0 1 1 .001-4.001A2 2 0 0 1 16 18zm-.704 3.992c.233.28.468.552.704.812.236-.26.471-.531.704-.812-.469.01-.939.01-1.408 0zm-2.66-.167a27.533 27.533 0 0 1-3.047-.491c-.1.467-.176.92-.227 1.355-.253 2.111.1 3.393.637 3.703.537.311 1.824-.025 3.527-1.299.351-.263.704-.555 1.059-.873a27.448 27.448 0 0 1-1.949-2.395zm9.775-.49a26.95 26.95 0 0 1-3.047.491 27.598 27.598 0 0 1-1.949 2.395c.355.32.708.611 1.059.873 1.703 1.273 2.989 1.609 3.527 1.299.537-.309.889-1.592.639-3.703a15.135 15.135 0 0 0-.227-1.355h-.001zm1.933-.516c.769 3.519.365 6.32-1.344 7.307s-4.337-.064-7-2.489c-2.663 2.425-5.291 3.475-7 2.488s-2.113-3.787-1.345-7.307C4.223 19.726 2 17.974 2 16.001s2.223-3.724 5.655-4.819C6.887 7.663 7.291 4.862 9 3.875s4.337.064 7 2.489c2.663-2.425 5.291-3.475 7-2.488s2.113 3.787 1.345 7.307C27.777 12.275 30 14.027 30 16s-2.223 3.724-5.655 4.819h-.001zM14.584 7.78a15.202 15.202 0 0 0-1.057-.873C11.824 5.634 10.538 5.298 10 5.608c-.537.309-.889 1.592-.639 3.703.053.436.128.888.227 1.355a27.788 27.788 0 0 1 3.048-.491 27.245 27.245 0 0 1 1.949-2.395h-.001zm4.78 2.395c1.069.112 2.091.279 3.047.491.1-.467.176-.92.227-1.355.253-2.111-.1-3.393-.637-3.703-.537-.311-1.824.025-3.527 1.299-.366.275-.719.566-1.059.873a27.245 27.245 0 0 1 1.949 2.395zm-2.66-.167c-.233-.28-.468-.552-.704-.812-.236.26-.471.531-.704.812.469-.01.939-.01 1.408 0zm-5.541 9.597a32.667 32.667 0 0 1-.704-1.219c-.127.343-.244.68-.351 1.015.342.075.695.143 1.053.204h.001zm2.576.312c1.505.112 3.017.112 4.523 0A30.48 30.48 0 0 0 20.523 16a30.598 30.598 0 0 0-2.261-3.917 30.485 30.485 0 0 0-4.523 0A30.363 30.363 0 0 0 11.478 16a30.598 30.598 0 0 0 2.261 3.917zm7.802-6.304c.127-.343.244-.68.351-1.015-.35-.076-.7-.144-1.053-.204.243.401.477.808.703 1.219zm-13.368-.497c-.453.147-.882.307-1.285.48C4.935 14.433 4 15.38 4 16s.933 1.567 2.888 2.404c.403.173.832.333 1.285.48.296-.933.663-1.901 1.1-2.884-.42-.94-.787-1.903-1.1-2.884zm1.934-.517c.108.333.225.672.352 1.013.226-.411.461-.817.704-1.217-.36.061-.712.129-1.055.204h-.001zm13.72 6.285c.453-.147.883-.307 1.285-.48C27.065 17.567 28 16.62 28 16s-.933-1.567-2.888-2.404c-.421-.179-.85-.339-1.285-.48a27.883 27.883 0 0 1-1.1 2.884 27.71 27.71 0 0 1 1.1 2.884zm-1.934.517a25.021 25.021 0 0 0-.352-1.013c-.226.411-.461.817-.704 1.217.36-.061.712-.129 1.055-.204h.001z"/>
    </symbol>
    <symbol id="icon-star" viewBox="0 0 32 32">
      <path d="m16 24.347-9.404 5.264 2.1-10.571-7.913-7.317 10.703-1.269L16.001.667l4.515 9.787 10.702 1.269-7.913 7.317 2.1 10.571-9.404-5.264z"/>
    </symbol>
    <symbol id="icon-star-trans" viewBox="0 0 32 32">
      <path d="m16 24.347-9.404 5.264 2.1-10.571-7.913-7.317 10.703-1.269L16.001.667l4.515 9.787 10.702 1.269-7.913 7.317 2.1 10.571-9.404-5.264zm0-3.056 5.662 3.169-1.265-6.364 4.764-4.407-6.444-.764L16 7.033l-2.717 5.893-6.444.763 4.764 4.407-1.265 6.364 5.663-3.169z"/>
    </symbol>
    <symbol id="icon-twitter" viewBox="0 0 32 32">
      <path d="M29.549 7.541c-1.018.45-2.097.746-3.203.877a5.593 5.593 0 0 0 2.453-3.085 11.118 11.118 0 0 1-3.541 1.353 5.576 5.576 0 0 0-9.501 5.085A15.826 15.826 0 0 1 4.264 5.944a5.567 5.567 0 0 0-.755 2.804c0 1.933.984 3.641 2.48 4.641a5.562 5.562 0 0 1-2.525-.697v.069a5.58 5.58 0 0 0 4.473 5.468 5.617 5.617 0 0 1-2.52.096 5.58 5.58 0 0 0 5.209 3.873 11.198 11.198 0 0 1-8.254 2.309 15.783 15.783 0 0 0 8.547 2.507c10.258 0 15.867-8.497 15.867-15.867 0-.24-.007-.483-.017-.72a11.334 11.334 0 0 0 2.783-2.887l-.001-.001z"/>
    </symbol>
    <symbol id="icon-vue" viewBox="0 0 32 32">
      <path d="M1.333 4h5.333l9.333 16 9.333-16h5.333L15.998 29.333 1.331 4zm11.556 0L16 9.333 19.111 4h5.38L16 18.667 7.509 4h5.38z"/>
    </symbol>
    <symbol id="icon-window" viewBox="0 0 32 32">
      <path d="M13.333 8v2.667H6.666v14.667h14.667v-6.667H24v8a1.334 1.334 0 0 1-1.334 1.334H5.333a1.334 1.334 0 0 1-1.334-1.334V9.334A1.334 1.334 0 0 1 5.333 8h8zM28 4v10.667h-2.667V8.551L14.942 18.943l-1.885-1.885L23.446 6.667h-6.113V4H28z"/>
    </symbol>
    <symbol id="icon-menu" viewBox="0 0 36 32">
    <path d="M0 0h36v4h-36v-4zM0 14h36v4h-36v-4zM0 28h36v4h-36v-4z"></path>
    </symbol>
    <symbol id="icon-github" viewBox="0 0 33 32">
    <path d="M16.405 0.005c-9.064 0-16.405 7.341-16.405 16.405 0 0.003 0 0.006 0 0.009 0 7.203 4.645 13.321 11.102 15.522l0.115 0.034c0.82 0.143 1.127-0.349 1.127-0.781 0-0.389-0.021-1.68-0.021-3.055-4.121 0.76-5.187-1.004-5.515-1.928-0.185-0.472-0.984-1.928-1.682-2.318-0.574-0.307-1.394-1.066-0.021-1.086 1.293-0.021 2.215 1.189 2.523 1.682 1.476 2.48 3.836 1.783 4.777 1.353 0.144-1.066 0.574-1.783 1.047-2.193-3.65-0.41-7.464-1.826-7.464-8.101 0-1.785 0.635-3.26 1.682-4.41-0.164-0.41-0.738-2.092 0.164-4.347 0 0 1.373-0.43 4.511 1.683 1.22-0.352 2.621-0.555 4.070-0.555 0.011 0 0.022 0 0.033 0h-0.002c1.394 0 2.789 0.184 4.101 0.553 3.137-2.133 4.511-1.68 4.511-1.68 0.902 2.256 0.328 3.937 0.164 4.347 1.045 1.148 1.682 2.604 1.682 4.408 0 6.296-3.832 7.691-7.484 8.101 0.594 0.512 1.107 1.496 1.107 3.035 0 2.193-0.021 3.957-0.021 4.511 0 0.43 0.308 0.942 1.129 0.778 6.55-2.262 11.171-8.372 11.175-15.563v-0c0-9.064-7.341-16.405-16.405-16.405z"></path>
    </symbol>
    <symbol id="icon-file" viewBox="0 0 37 32">
      <path d="M1.006-1.966h33.371c.503 0 .96.183 1.326.526.343.366.526.823.526 1.326v29.669c0 .48-.183.96-.526 1.303-.366.343-.823.549-1.326.549H1.006a1.874 1.874 0 0 1-1.852-1.852V-.114c0-.503.206-.96.549-1.326a1.851 1.851 0 0 1 1.303-.526zm7.428 23.177v-7.429l3.703 3.703 3.703-3.703v7.429h3.703V8.228H15.84l-3.703 3.703-3.703-3.703H4.708v12.983h3.726zm20.389-5.577V8.228H25.12v7.406h-3.726l5.577 5.577 5.554-5.577h-3.703z"/>
    </symbol>
    <symbol id="icon-folder" viewBox="0 0 37 32">
      <path d="M34.658 8.886v21.317c0 .468-.197.935-.542 1.255-.32.345-.788.542-1.255.542h-32a1.77 1.77 0 0 1-1.255-.542 1.811 1.811 0 0 1-.517-1.255V7.089h33.772c.468 0 .935.197 1.255.542.345.32.542.763.542 1.255zM17.6 3.545H-.911V1.773c0-.468.197-.935.517-1.255A1.749 1.749 0 0 1 .861.001h13.194L17.6 3.546z"/>
    </symbol>
  </defs>
</svg>
